<svg height="512pt" viewBox="-15 0 512 512.001" width="512pt" xmlns="http://www.w3.org/2000/svg"><path d="m297.601562 504.492188h-112.5l-34.109374-56.179688c10.324218-21.757812 24.398437-35.582031 31.191406-41.421875 2.488281-2.136719 3.992187-3.210937 3.992187-3.210937h110.351563s1.507812 1.074218 3.996094 3.210937c6.789062 5.839844 20.863281 19.664063 31.1875 41.421875zm0 0" fill="#e8e8e8"/><path d="m163.691406 460.589844-21.40625 12.273437c-2.519531 10.34375-3.773437 20.996094-3.773437 31.632813h46.589843v-31.632813zm0 0" fill="#f1be8c"/><path d="m319.011719 460.589844 21.40625 12.273437c2.519531 10.34375 3.773437 20.996094 3.773437 31.632813h-46.589844v-31.632813zm0 0" fill="#f1be8c"/><path d="m185.101562 448.3125v24.550781h-42.816406c1.554688-6.402343 3.601563-12.683593 6.128906-18.773437.824219-1.984375 1.6875-3.910156 2.578126-5.777344zm0 0" fill="#394048"/><path d="m297.601562 448.3125v24.550781h42.816407c-1.554688-6.402343-3.601563-12.683593-6.128907-18.773437-.824218-1.984375-1.683593-3.910156-2.578124-5.777344zm0 0" fill="#394048"/><path d="m462.507812 220.199219c-1.546874-93.785157-67.761718-173.957031-159.066406-195.421875-17.878906-4.203125-35.628906-7.742188-55.886718-16.050782-3.96875-1.625-8.4375-1.625-12.40625 0-20.257813 8.308594-38.007813 11.847657-55.886719 16.050782-91.304688 21.464844-157.519531 101.636718-159.066407 195.421875-.242187 14.664062.996094 29.347656 3.703126 43.761719h434.90625c3.542968 0 3.78125-38.882813 3.703124-43.761719zm0 0" fill="#8c6a5a"/><path d="m50.195312 220.199219c1.546876-93.785157 67.761719-173.957031 159.066407-195.421875 15.242187-3.585938 30.398437-6.695313 47.089843-12.679688-2.882812-1.035156-5.808593-2.144531-8.796874-3.371094-3.96875-1.625-8.4375-1.625-12.40625 0-20.257813 8.308594-38.007813 11.847657-55.886719 16.050782-91.304688 21.464844-157.519531 101.636718-159.066407 195.421875-.242187 14.664062.996094 29.347656 3.703126 43.761719h30c-2.707032-14.414063-3.945313-29.097657-3.703126-43.761719zm0 0" fill="#7f6052"/><g fill="#d7a37e"><path d="m84.078125 253.265625c0 21.148437-17.140625 38.289063-38.289063 38.289063-21.148437 0-38.289062-17.140626-38.289062-38.289063s17.140625-38.289063 38.289062-38.289063c21.148438 0 38.289063 17.140626 38.289063 38.289063zm0 0"/><path d="m475.203125 253.265625c0 21.148437-17.140625 38.289063-38.289063 38.289063-21.148437 0-38.289062-17.140626-38.289062-38.289063s17.140625-38.289063 38.289062-38.289063c21.148438 0 38.289063 17.140626 38.289063 38.289063zm0 0"/><path d="m277.800781 406.628906c0 20.132813-16.316406 36.453125-36.449219 36.453125-20.128906 0-36.449218-16.320312-36.449218-36.453125 0-20.128906 16.320312-36.449218 36.449218-36.449218 20.132813 0 36.449219 16.320312 36.449219 36.449218zm0 0"/></g><path d="m249.742188 165.378906c-4.796876 4.230469-11.984376 4.230469-16.78125 0-83.097657-73.226562-175.113282-13.261718-182.035157 43.183594-.414062 5.035156-.632812 10.128906-.632812 15.273438 0 103.726562 85.539062 187.8125 191.058593 187.8125 105.515626 0 191.054688-84.085938 191.054688-187.8125 0-5.144532-.21875-10.242188-.632812-15.28125-6.925782-56.445313-98.933594-116.398438-182.03125-43.175782zm0 0" fill="#f1be8c"/><path d="m80.296875 223.835938c0-5.144532.21875-10.238282.628906-15.273438 4.183594-34.101562 39.421875-69.472656 84.988281-75.996094-59.328124-8.453125-109.921874 34.707032-114.984374 75.996094-.414063 5.035156-.632813 10.128906-.632813 15.273438 0 103.726562 85.539063 187.808593 191.054687 187.808593 5.046876 0 10.050782-.195312 15-.574219-98.507812-7.519531-176.054687-88.472656-176.054687-187.234374zm0 0" fill="#d7a37e"/><path d="m344.195312 285.894531h-24.050781c-4.140625 0-7.5-3.355469-7.5-7.5 0-4.140625 3.359375-7.5 7.5-7.5h24.050781c4.144532 0 7.5 3.359375 7.5 7.5 0 4.144531-3.355468 7.5-7.5 7.5zm0 0" fill="#e98e8f"/><path d="m162.558594 285.894531h-24.050782c-4.140624 0-7.5-3.355469-7.5-7.5 0-4.140625 3.359376-7.5 7.5-7.5h24.050782c4.144531 0 7.5 3.359375 7.5 7.5 0 4.144531-3.355469 7.5-7.5 7.5zm0 0" fill="#e98e8f"/><path d="m332.171875 259.945312c4.140625 0 7.5-3.355468 7.5-7.5v-17.65625c0-4.144531-3.359375-7.5-7.5-7.5-4.144531 0-7.5 3.355469-7.5 7.5v17.65625c0 4.144532 3.355469 7.5 7.5 7.5zm0 0"/><path d="m150.53125 259.945312c4.144531 0 7.5-3.355468 7.5-7.5v-17.65625c0-4.144531-3.355469-7.5-7.5-7.5-4.140625 0-7.5 3.355469-7.5 7.5v17.65625c0 4.144532 3.359375 7.5 7.5 7.5zm0 0"/><path d="m262.53125 264.570312c-3.117188-2.726562-7.855469-2.40625-10.582031.710938-2.570313 2.9375-6.429688 4.621094-10.597657 4.621094-4.167968 0-8.027343-1.683594-10.597656-4.621094-2.726562-3.121094-7.464844-3.4375-10.582031-.710938-3.117187 2.726563-3.4375 7.464844-.710937 10.582032 5.417968 6.199218 13.394531 9.75 21.890624 9.75 8.496094 0 16.472657-3.550782 21.890626-9.75 2.726562-3.117188 2.40625-7.855469-.710938-10.582032zm0 0"/><path d="m41.320312 207.707031c-3.851562.378907-7.652343 1.238281-11.289062 2.570313-.660156.242187-1.316406.496094-1.960938.765625 5.496094-85.96875 67.207032-158.8125 152.90625-178.960938 2.34375-.550781 4.6875-1.089843 7.03125-1.628906 15.648438-3.609375 31.832032-7.335937 49.984376-14.78125 2.136718-.875 4.585937-.875 6.71875 0 18.152343 7.445313 34.335937 11.171875 49.984374 14.78125 2.34375.539063 4.6875 1.078125 7.03125 1.628906 22.941407 5.394531 44.527344 14.667969 64.160157 27.5625 3.460937 2.273438 8.113281 1.3125 10.386719-2.148437 2.273437-3.464844 1.308593-8.113282-2.152344-10.386719-21.101563-13.863281-44.304688-23.832031-68.964844-29.628906-2.363281-.554688-4.726562-1.101563-7.09375-1.644531-15.0625-3.472657-30.636719-7.058594-47.664062-14.042969-5.832032-2.390625-12.261719-2.390625-18.097657 0-17.023437 6.980469-32.597656 10.570312-47.660156 14.042969-2.367187.542968-4.730469 1.089843-7.09375 1.644531-45.894531 10.789062-87.546875 36.769531-117.285156 73.148437-29.898438 36.574219-46.789063 82.550782-47.5625 129.449219-.011719.535156-.003907 1.066406-.007813 1.601563-7.851562 8.222656-12.691406 19.351562-12.691406 31.59375 0 25.246093 20.542969 45.789062 45.789062 45.789062 3.992188 0 7.902344-.515625 11.699219-1.523438 20.847657 50.144532 62.296875 89.917969 113.945313 109.097657-7.984375 7.886719-18.75 20.640625-27.214844 38.472656-8.824219 18.453125-13.203125 38.960937-13.203125 59.390625 0 4.144531 3.355469 7.5 7.5 7.5h205.675781c4.144532 0 7.5-3.355469 7.5-7.5 0-20.535156-4.523437-40.789062-13.203125-59.394531-8.449219-17.8125-19.222656-30.574219-27.214843-38.464844 51.648437-19.179687 93.097656-58.957031 113.945312-109.097656 3.792969 1.003906 7.707031 1.519531 11.699219 1.519531 25.246093 0 45.789062-20.539062 45.789062-45.789062 0-12.238282-4.835937-23.363282-12.6875-31.585938-.003906-.695312-.007812-1.246094-.011719-1.605469-.964843-58.539062-26.878906-114.660156-71.097656-153.972656-3.097656-2.75-7.835937-2.472656-10.589844.625-2.75 3.09375-2.472656 7.835937.625 10.585937 38.742188 34.445313 62.363282 82.753907 65.683594 133.726563-.644531-.273437-1.292968-.523437-1.949218-.765625-4.175782-1.53125-8.570313-2.445312-13.007813-2.707031-.148437-.007813-.296875-.023438-.464844-.035157-.003906-.039062-.84375-5.320312-1.464843-7.875-6.148438-25.285156-26.328126-48.925781-53.457032-62.859374-16.164062-8.300782-34.273437-12.8125-52.460937-12.8125-27.894531 0-54.414063 10.683593-76.550781 27.242187-3.609376 2.699219-7.105469 5.546875-10.488282 8.527344-1.898437 1.671875-4.964844 1.671875-6.867187 0-3.367188-2.96875-6.832031-5.917969-10.488281-8.53125-19.472657-14.621094-42.898438-25.082031-67.382813-26.859375-.019531 0-.042969-.003906-.0625-.003906-20.863281-1.757813-42.792969 2.753906-61.640625 12.476562-27.089844 13.9375-47.234375 37.558594-53.382812 62.820312-.496094 2.042969-1.273438 7.425782-1.484376 7.878907-.148437.003906-1.585937.109375-2.15625.164062zm10.878907 75.6875c-2.09375.441407-4.234375.667969-6.410157.667969-16.976562 0-30.789062-13.8125-30.789062-30.789062 0-15.085938 11.539062-28.371094 26.46875-30.488282.089844-.011718 1.328125-.140625 1.332031-.15625-.160156 20.464844 3.035157 41.207032 9.398438 60.765625zm162.816406 134.035157c1.949219.253906 3.90625.492187 5.875.691406.046875.003906.09375.011718.140625.015625 15.515625 1.519531 31.191406 1.316406 46.652344-.707031.191406-.023438.386718-.039063.574218-.066407-4.25 10.730469-14.703124 18.222657-26.90625 18.222657-12.203124 0-22.65625-7.492188-26.910156-18.222657.191406.023438.382813.042969.574219.066407zm-37.414063 47.9375h-25.378906c.9375-2.84375 1.980469-5.652344 3.121094-8.398438.15625-.382812.320312-.765625.484375-1.148438h21.773437zm-29.28125 15h29.28125v16.632812h-31.367187c.328125-5.601562 1.023437-11.160156 2.085937-16.632812zm179.042969-23.394532c1.140625 2.746094 2.183594 5.550782 3.117188 8.394532h-25.378907v-9.546876h21.777344c.164063.382813.324219.769532.484375 1.152344zm-22.261719 40.027344v-16.632812h29.28125c1.0625 5.46875 1.757813 11.03125 2.089844 16.632812zm-10.210937-85.046875c.234375.199219.480469.410156.742187.632813 5.53125 4.753906 15.039063 14.101562 23.550782 28.234374h-21.582032c-4.140624 0-7.5 3.355469-7.5 7.5v48.679688h-97.5v-48.679688c0-4.144531-3.359374-7.5-7.5-7.5h-21.582031c8.511719-14.132812 18.019531-23.480468 23.550781-28.234374.261719-.222657.507813-.433594.742188-.632813.746094.207031 7.601562 1.929687 10.300781 2.519531 3.691407 20.667969 21.652344 36.113282 43.238281 36.113282 21.585938 0 39.550782-15.445313 43.242188-36.113282 3.449219-.757812 6.890625-1.582031 10.296875-2.519531zm-19.875-10.851563c-22.179687 4.054688-45.144531 4.058594-67.328125 0-79.117188-14.464843-140.558594-78.933593-148.917969-158.644531-.023437-.207031-.042969-.410156-.0625-.617187-1.085937-10.742188-1.390625-21.761719-.316406-32.515625 3.445313-42.234375 54.191406-70.332031 92.488281-70.332031 26.679688 0 53.347656 11.070312 77.121094 32.019531 7.535156 6.640625 19.171875 6.640625 26.699219 0 23.773437-20.945313 50.441406-32.019531 77.125-32.019531 38.125 0 81.40625 24.960937 91.273437 63.960937.019532.082031.039063.160156.058594.242187 3.140625 12.832032 2.140625 26.257813.777344 39.257813-8.359375 79.710937-69.800782 144.183594-148.917969 158.648437zm161.898437-117.039062c-2.175781 0-4.320312-.226562-6.410156-.667969 3.675782-11.308593 6.277344-22.894531 7.796875-34.667969.003907-.035156.007813-.066406.011719-.097656 1.058594-8.21875 1.59375-16.503906 1.59375-24.789062 0-.402344 0-.804688-.003906-1.210938.226562.019532.453125.050782.679687.078125 15.273438 1.824219 27.121094 15.195313 27.121094 30.566407 0 16.976562-13.8125 30.789062-30.789063 30.789062zm0 0"/></svg>